<svg width="36" height="35" viewBox="0 0 36 35" fill="none" xmlns="http://www.w3.org/2000/svg">
<g clip-path="url(#clip0_15_41)">
<path d="M33.2615 14.3879C30.1421 14.3879 27.2502 13.3904 24.8906 11.6958V23.924C24.8906 30.0315 19.9221 34.9985 13.816 34.9985C11.4565 34.9985 9.2675 34.2548 7.46938 32.9919C4.61396 30.9867 2.74146 27.6704 2.74146 23.924C2.74146 17.8165 7.71 12.8479 13.8175 12.8479C14.325 12.8479 14.8208 12.8902 15.3094 12.9558V14.3806V19.0983C14.8369 18.951 14.3381 18.865 13.8175 18.865C11.0292 18.865 8.76 21.1342 8.76 23.924C8.76 25.8665 9.8625 27.5538 11.4725 28.401C12.174 28.77 12.9717 28.9815 13.819 28.9815C16.5431 28.9815 18.7656 26.8144 18.8677 24.1135L18.8721 0H24.8892C24.8892 0.522083 24.9402 1.03104 25.0306 1.52688C25.455 3.81938 26.8156 5.78667 28.7012 7.01604C30.0137 7.87208 31.58 8.37229 33.26 8.37229L33.2615 14.3879Z" fill="white"/>
</g>
<defs>
<clipPath id="clip0_15_41">
<rect width="35" height="35" fill="white" transform="translate(0.5)"/>
</clipPath>
</defs>
</svg>
