<svg width="100" height="100" viewBox="0 0 100 100" fill="none" xmlns="http://www.w3.org/2000/svg">
<g clip-path="url(#clip0_47_389)">
<path d="M49.825 100.033L46.9205 97.5437C42.9164 94.191 7.9541 63.9963 7.9541 41.9096C7.9541 18.785 26.7004 0.0386658 49.825 0.0386658C72.9496 0.0386658 91.6959 18.785 91.6959 41.9096C91.6959 63.9965 56.7336 94.1912 52.7461 97.5603L49.825 100.033ZM49.825 9.09238C31.7092 9.11288 17.0285 23.7936 17.008 41.9094C17.008 55.7848 38.5182 77.9504 49.825 88.0955C61.132 77.9463 82.642 55.768 82.642 41.9094C82.6215 23.7936 67.941 9.11308 49.825 9.09238Z" fill="white"/>
<path d="M49.825 58.5068C40.6586 58.5068 33.2277 51.076 33.2277 41.9096C33.2277 32.7432 40.6586 25.3123 49.825 25.3123C58.9914 25.3123 66.4223 32.7432 66.4223 41.9096C66.4223 51.076 58.9916 58.5068 49.825 58.5068ZM49.825 33.6108C45.2418 33.6108 41.5264 37.3262 41.5264 41.9094C41.5264 46.4926 45.2418 50.208 49.825 50.208C54.4082 50.208 58.1236 46.4926 58.1236 41.9094C58.1236 37.3262 54.4084 33.6108 49.825 33.6108Z" fill="white"/>
</g>
<defs>
<clipPath id="clip0_47_389">
<rect width="100" height="100" fill="white"/>
</clipPath>
</defs>
</svg>
