<svg width="36" height="35" viewBox="0 0 36 35" fill="none" xmlns="http://www.w3.org/2000/svg">
<g clip-path="url(#clip0_15_32)">
<path d="M18 3.15292C22.6725 3.15292 23.2267 3.17042 25.0715 3.255C26.979 3.3425 28.9433 3.77708 30.3331 5.16688C31.736 6.56979 32.1575 8.51521 32.245 10.4285C32.3296 12.2733 32.3471 12.8275 32.3471 17.5C32.3471 22.1725 32.3296 22.7267 32.245 24.5715C32.159 26.4688 31.7142 28.4521 30.3331 29.8331C28.9302 31.236 26.9863 31.6575 25.0715 31.745C23.2267 31.8296 22.6725 31.8471 18 31.8471C13.3275 31.8471 12.7733 31.8296 10.9285 31.745C9.04583 31.659 7.03625 31.204 5.66688 29.8331C4.27125 28.4375 3.8425 26.4731 3.755 24.5715C3.67042 22.7267 3.65292 22.1725 3.65292 17.5C3.65292 12.8275 3.67042 12.2733 3.755 10.4285C3.84104 8.53854 4.29021 6.54354 5.66688 5.16688C7.06688 3.76688 9.01958 3.3425 10.9285 3.255C12.7733 3.17042 13.3275 3.15292 18 3.15292ZM18 0C13.2473 0 12.6508 0.0204167 10.7842 0.105C8.07896 0.228958 5.39271 0.981458 3.43708 2.93708C1.47417 4.9 0.728958 7.58042 0.605 10.2842C0.520417 12.1508 0.5 12.7473 0.5 17.5C0.5 22.2527 0.520417 22.8492 0.605 24.7158C0.728958 27.4181 1.48437 30.1117 3.43708 32.0629C5.39854 34.0244 8.08333 34.771 10.7842 34.895C12.6508 34.9796 13.2473 35 18 35C22.7527 35 23.3492 34.9796 25.2158 34.895C27.9196 34.771 30.6088 34.0171 32.5629 32.0629C34.5273 30.0985 35.271 27.4196 35.395 24.7158C35.4796 22.8492 35.5 22.2527 35.5 17.5C35.5 12.7473 35.4796 12.1508 35.395 10.2842C35.271 7.57896 34.5171 4.89125 32.5629 2.93708C30.6044 0.978542 27.9123 0.2275 25.2158 0.105C23.3492 0.0204167 22.7527 0 18 0Z" fill="white"/>
<path d="M18 8.51367C13.0373 8.51367 9.01375 12.5372 9.01375 17.4999C9.01375 22.4626 13.0373 26.4862 18 26.4862C22.9627 26.4862 26.9863 22.4626 26.9863 17.4999C26.9863 12.5372 22.9627 8.51367 18 8.51367ZM18 23.3333C14.7785 23.3333 12.1667 20.7214 12.1667 17.4999C12.1667 14.2785 14.7785 11.6666 18 11.6666C21.2215 11.6666 23.8333 14.2785 23.8333 17.4999C23.8333 20.7214 21.2215 23.3333 18 23.3333Z" fill="white"/>
<path d="M27.3421 10.2579C28.5019 10.2579 29.4421 9.31766 29.4421 8.15786C29.4421 6.99806 28.5019 6.05786 27.3421 6.05786C26.1823 6.05786 25.2421 6.99806 25.2421 8.15786C25.2421 9.31766 26.1823 10.2579 27.3421 10.2579Z" fill="white"/>
</g>
<defs>
<clipPath id="clip0_15_32">
<rect width="35" height="35" fill="white" transform="translate(0.5)"/>
</clipPath>
</defs>
</svg>
