<svg width="36" height="35" viewBox="0 0 36 35" fill="none" xmlns="http://www.w3.org/2000/svg">
<g clip-path="url(#clip0_15_37)">
<path fill-rule="evenodd" clip-rule="evenodd" d="M30.3419 5.08667C27.0665 1.80833 22.7119 0.00145833 18.0729 0C8.51354 0 0.733334 7.77875 0.728959 17.3425C0.727501 20.3992 1.52667 23.3829 3.04479 26.0137L0.583126 35L9.77646 32.5879C12.3096 33.9704 15.1621 34.6981 18.0642 34.6996H18.0715C27.6294 34.6996 35.411 26.9194 35.4154 17.3556C35.4183 12.7225 33.6158 8.36354 30.3419 5.08667ZM18.0729 31.7698H18.0671C15.48 31.7698 12.944 31.0742 10.7302 29.7602L10.2038 29.4481L4.74813 30.8788L6.205 25.5587L5.86229 25.0133C4.41854 22.7179 3.65729 20.0652 3.65875 17.3425C3.66167 9.39458 10.1294 2.92833 18.0802 2.92833C21.9302 2.92833 25.5498 4.43042 28.271 7.15458C30.9923 9.88021 32.49 13.5013 32.4885 17.3527C32.4842 25.3035 26.0179 31.7698 18.0729 31.7698ZM25.98 20.9738C25.5469 20.7565 23.4163 19.7079 23.0181 19.5635C22.6215 19.4192 22.3327 19.3463 22.0425 19.7794C21.7523 20.2125 20.924 21.1896 20.6702 21.4798C20.4179 21.7685 20.1642 21.805 19.731 21.5877C19.2979 21.3704 17.9008 20.914 16.2456 19.4367C14.9579 18.2875 14.0873 16.8685 13.835 16.434C13.5827 15.9994 13.8088 15.766 14.0246 15.5502C14.22 15.3563 14.4577 15.0442 14.675 14.7904C14.8938 14.5396 14.9652 14.3588 15.111 14.0685C15.2554 13.7798 15.184 13.526 15.0746 13.3088C14.9652 13.0929 14.099 10.9594 13.7388 10.0917C13.3873 9.24583 13.03 9.36104 12.7631 9.34792C12.5108 9.33479 12.2221 9.33333 11.9319 9.33333C11.6431 9.33333 11.1735 9.44125 10.7769 9.87583C10.3802 10.3104 9.26021 11.359 9.26021 13.491C9.26021 15.6246 10.8133 17.6852 11.0292 17.974C11.245 18.2627 14.0844 22.6406 18.4317 24.5175C19.4656 24.9638 20.2735 25.2306 20.9021 25.4304C21.9404 25.76 22.8854 25.7133 23.6321 25.6025C24.4648 25.4785 26.1958 24.554 26.5575 23.5419C26.9192 22.5298 26.9192 21.6606 26.8098 21.4812C26.7019 21.299 26.4131 21.191 25.98 20.9738Z" fill="white"/>
</g>
<defs>
<clipPath id="clip0_15_37">
<rect width="35" height="35" fill="white" transform="translate(0.5)"/>
</clipPath>
</defs>
</svg>
