<svg width="36" height="35" viewBox="0 0 36 35" fill="none" xmlns="http://www.w3.org/2000/svg">
<g clip-path="url(#clip0_15_43)">
<path d="M35.5 17.6064C35.5 26.3404 29.0921 33.581 20.7271 34.895V22.6989H24.7944L25.5688 17.6531H20.7271V14.3792C20.7271 12.9981 21.4038 11.6535 23.5708 11.6535H25.7715V7.35728C25.7715 7.35728 23.7735 7.01603 21.8646 7.01603C17.8775 7.01603 15.2729 9.43249 15.2729 13.806V17.6517H10.841V22.6975H15.2729V34.8935C6.90938 33.5781 0.5 26.3389 0.5 17.6064C0.5 7.94207 8.33563 0.106445 18 0.106445C27.6644 0.106445 35.5 7.94061 35.5 17.6064Z" fill="white"/>
</g>
<defs>
<clipPath id="clip0_15_43">
<rect width="35" height="35" fill="white" transform="translate(0.5)"/>
</clipPath>
</defs>
</svg>
