<svg width="40" height="40" viewBox="0 0 40 40" fill="none" xmlns="http://www.w3.org/2000/svg">
<g clip-path="url(#clip0_5_36)">
<path d="M20 0C8.96667 0 0 8.96667 0 20C0 31.0333 8.96667 40 20 40C31.0333 40 40 31.0333 40 20C40 8.96667 31.0333 0 20 0ZM20 38.3333C9.88333 38.3333 1.66667 30.1167 1.66667 20C1.66667 9.88333 9.88333 1.66667 20 1.66667C30.1167 1.66667 38.3333 9.88333 38.3333 20C38.3333 30.1167 30.1167 38.3333 20 38.3333ZM20.7 9.43333H19.2833L16.75 16.6667H9.51667V18.05L14.7333 22.25L12.7833 28.75L13.9 29.6167L20 25.6667L26.1 29.6167L27.2167 28.75L25.2667 22.25L30.4833 18.05V16.6667H23.25L20.7167 9.43333H20.7ZM23.3333 21.65L24.8833 26.85L19.9833 23.6667L15.0833 26.85L16.6333 21.65L12.5167 18.3333H17.9333L20 12.45L22.0667 18.3333H27.4833L23.3667 21.65H23.3333Z" fill="white"/>
</g>
<defs>
<clipPath id="clip0_5_36">
<rect width="40" height="40" fill="white"/>
</clipPath>
</defs>
</svg>
