<svg width="40" height="40" viewBox="0 0 40 40" fill="none" xmlns="http://www.w3.org/2000/svg">
<path d="M37.3267 13.615C37.2483 13.3433 37.035 13.1283 36.765 13.0467C36.6183 13.005 33.145 11.98 29.0383 11.98C28.8433 11.98 28.6483 11.9833 28.4567 11.9883C28.0283 8.29501 27.3283 5.89001 27.2867 5.74835C27.205 5.47501 26.9917 5.26335 26.72 5.18335C26.5033 5.12168 21.3383 3.64001 15.2267 3.64001C9.115 3.64001 3.95 5.12168 3.73333 5.18335C3.46 5.26335 3.24667 5.47668 3.16667 5.75001C3.105 5.95835 1.66833 10.94 1.66833 17.6017C1.66833 24.3217 3.10667 29.25 3.16667 29.4567C3.25333 29.7483 3.49167 29.97 3.79 30.035C3.88 30.0533 4.81 30.2517 6.3 30.4767V32.2467C6.3 34.5133 8.14 36.3583 10.4 36.3583C12.66 36.3583 14.5017 34.515 14.5017 32.2467V31.165C14.7417 31.1683 14.9833 31.17 15.2283 31.17C18.58 31.17 21.6517 30.8367 23.7667 30.5317H25.905V32.245C25.905 34.5117 27.745 36.3567 30.0067 36.3567C32.2683 36.3567 34.1083 34.5133 34.1083 32.245V30.5317H36.53C36.9033 30.5317 37.23 30.285 37.33 29.9283C37.3717 29.7833 38.3367 26.3517 38.3367 21.77C38.3367 17.15 37.3717 13.7533 37.33 13.6117L37.3267 13.615ZM29.0383 13.6483C32.0683 13.6483 34.7967 14.2583 35.8383 14.525C36.0383 15.36 36.4483 17.3 36.6033 19.8033H28.7317C28.765 19.095 28.7833 18.36 28.7833 17.6033C28.7833 16.2 28.72 14.8733 28.62 13.6533C28.7583 13.65 28.8983 13.6483 29.0383 13.6483ZM12.8333 32.2483C12.8333 33.5967 11.7417 34.6933 10.3983 34.6933C9.055 34.6933 7.965 33.5967 7.965 32.2483V30.7067C9.35833 30.88 11.0233 31.0383 12.8333 31.1183V32.2483ZM4.635 28.505C4.28333 27.1233 3.33333 22.8983 3.33333 17.6033C3.33333 12.3083 4.30167 8.01835 4.645 6.66668C6.01833 6.31501 10.365 5.31001 15.2267 5.31001C20.0883 5.31001 24.4367 6.31668 25.8083 6.66668C26.1517 8.01001 27.1183 12.2617 27.1183 17.6033C27.1183 22.8567 26.1683 27.1117 25.8167 28.505C24.3883 28.7733 20.0617 29.5067 15.2267 29.5067C10.3917 29.5067 6.06167 28.775 4.63667 28.505H4.635ZM32.4383 32.2483C32.4383 33.5967 31.3467 34.6933 30.0033 34.6933C28.66 34.6933 27.5683 33.5967 27.5683 32.2483V30.535H32.4383V32.2483ZM35.875 28.8683H27.4433C27.7317 27.7283 28.3383 25.03 28.625 21.4717H36.6633C36.6633 21.5717 36.6633 21.6733 36.6633 21.775C36.6633 25.0283 36.1383 27.7167 35.8717 28.87L35.875 28.8683Z" fill="white"/>
</svg>
